<svg width="32" height="36" viewBox="0 0 32 36" fill="none" xmlns="http://www.w3.org/2000/svg">
<path d="M5.33337 25.3333V8.26667C5.33337 6.7732 5.33337 6.02645 5.62403 5.45603C5.87968 4.95425 6.28763 4.54631 6.7894 4.29065C7.35983 4 8.10657 4 9.60004 4H22.4C23.8935 4 24.6403 4 25.2107 4.29065C25.7124 4.54631 26.1204 4.95425 26.376 5.45603C26.6667 6.02645 26.6667 6.7732 26.6667 8.26667V22.6667H8.00004C6.52728 22.6667 5.33337 23.8605 5.33337 25.3333ZM5.33337 25.3333C5.33337 26.8061 6.52728 28 8.00004 28H26.6667M12 9.33333H20M12 14.6667H20M25.3334 22.6667V28" stroke="#1E1E1E" stroke-width="2.5" stroke-linecap="round" stroke-linejoin="round"/>
</svg>
