<svg width="32" height="36" viewBox="0 0 32 36" fill="none" xmlns="http://www.w3.org/2000/svg">
<path d="M26.6666 10.6667H10.6666C9.60576 10.6667 8.58834 10.2452 7.8382 9.49508C7.08805 8.74494 6.66663 7.72752 6.66663 6.66666C6.66663 5.60579 7.08805 4.58838 7.8382 3.83823C8.58834 3.08808 9.60576 2.66666 10.6666 2.66666H26.6666C27.0202 2.66666 27.3594 2.80713 27.6094 3.05718C27.8595 3.30723 28 3.64637 28 3.99999V9.33332C28 9.68695 27.8595 10.0261 27.6094 10.2761C27.3594 10.5262 27.0202 10.6667 26.6666 10.6667ZM10.6666 5.33332C10.313 5.33332 9.97387 5.4738 9.72382 5.72385C9.47377 5.9739 9.33329 6.31303 9.33329 6.66666C9.33329 7.02028 9.47377 7.35942 9.72382 7.60947C9.97387 7.85951 10.313 7.99999 10.6666 7.99999H25.3333V5.33332H10.6666Z" fill="#1E1E1E"/>
<path d="M25.3333 29.3333H6.66663C5.60576 29.3333 4.58834 28.9119 3.8382 28.1618C3.08805 27.4116 2.66663 26.3942 2.66663 25.3333C2.66663 24.2725 3.08805 23.2551 3.8382 22.5049C4.58834 21.7548 5.60576 21.3333 6.66663 21.3333H25.3333C25.6869 21.3333 26.0261 21.4738 26.2761 21.7239C26.5262 21.9739 26.6666 22.3131 26.6666 22.6667V28C26.6666 28.3536 26.5262 28.6928 26.2761 28.9428C26.0261 29.1929 25.6869 29.3333 25.3333 29.3333ZM6.66663 24C6.313 24 5.97387 24.1405 5.72382 24.3905C5.47377 24.6406 5.33329 24.9797 5.33329 25.3333C5.33329 25.687 5.47377 26.0261 5.72382 26.2762C5.97387 26.5262 6.313 26.6667 6.66663 26.6667H24V24H6.66663Z" fill="#1E1E1E"/>
<path d="M22.6666 16H6.66663C5.60576 16 4.58834 15.5786 3.8382 14.8284C3.08805 14.0783 2.66663 13.0609 2.66663 12C2.66663 10.9391 3.08805 9.92172 3.8382 9.17157C4.58834 8.42143 5.60576 8 6.66663 8H22.6666C23.0202 8 23.3594 8.14048 23.6094 8.39052C23.8595 8.64057 24 8.97971 24 9.33333C24 9.68696 23.8595 10.0261 23.6094 10.2761C23.3594 10.5262 23.0202 10.6667 22.6666 10.6667H6.66663C6.313 10.6667 5.97387 10.8071 5.72382 11.0572C5.47377 11.3072 5.33329 11.6464 5.33329 12C5.33329 12.3536 5.47377 12.6928 5.72382 12.9428C5.97387 13.1929 6.313 13.3333 6.66663 13.3333H22.6666C23.0202 13.3333 23.3594 13.4738 23.6094 13.7239C23.8595 13.9739 24 14.313 24 14.6667C24 15.0203 23.8595 15.3594 23.6094 15.6095C23.3594 15.8595 23.0202 16 22.6666 16Z" fill="#1E1E1E"/>
<path d="M28 24H13.3333C11.9188 24 10.5623 23.4381 9.5621 22.4379C8.5619 21.4377 8 20.0812 8 18.6667C8 17.2522 8.5619 15.8956 9.5621 14.8954C10.5623 13.8952 11.9188 13.3333 13.3333 13.3333H28C28.3536 13.3333 28.6928 13.4738 28.9428 13.7239C29.1929 13.9739 29.3333 14.3131 29.3333 14.6667C29.3333 15.0203 29.1929 15.3594 28.9428 15.6095C28.6928 15.8595 28.3536 16 28 16H13.3333C12.6261 16 11.9478 16.281 11.4477 16.7811C10.9476 17.2812 10.6667 17.9594 10.6667 18.6667C10.6667 19.3739 10.9476 20.0522 11.4477 20.5523C11.9478 21.0524 12.6261 21.3333 13.3333 21.3333H26.6667V18.6667C26.6667 18.3131 26.8071 17.9739 27.0572 17.7239C27.3072 17.4738 27.6464 17.3333 28 17.3333C28.3536 17.3333 28.6928 17.4738 28.9428 17.7239C29.1929 17.9739 29.3333 18.3131 29.3333 18.6667V22.6667C29.3333 23.0203 29.1929 23.3594 28.9428 23.6095C28.6928 23.8595 28.3536 24 28 24Z" fill="#1E1E1E"/>
</svg>
