<svg width="30" height="33" viewBox="0 0 30 33" fill="none" xmlns="http://www.w3.org/2000/svg">
<path fill-rule="evenodd" clip-rule="evenodd" d="M24.8438 29.3762H5.15726C4.09767 29.3762 3.31523 28.2641 3.71487 27.2413C5.56915 22.5121 9.9254 19.8029 14.9998 19.8029C20.0757 19.8029 24.4319 22.5121 26.2862 27.2413C26.6859 28.2641 25.9034 29.3762 24.8438 29.3762ZM8.875 10.2296C8.875 6.70976 11.6235 3.84733 14.9998 3.84733C18.3776 3.84733 21.1245 6.70976 21.1245 10.2296C21.1245 13.7493 18.3776 16.6118 14.9998 16.6118C11.6235 16.6118 8.875 13.7493 8.875 10.2296ZM29.9335 28.7954C28.8203 23.4359 25.3384 19.4805 20.7555 17.6855C23.184 15.648 24.6004 12.3531 24.0798 8.7456C23.4765 4.56046 20.1354 1.21147 16.1022 0.723226C10.5348 0.0483069 5.81261 4.56374 5.81261 10.2296C5.81261 13.2451 7.15394 15.932 9.24555 17.6855C4.66115 19.4805 1.18075 23.4359 0.066036 28.7954C-0.338199 30.7436 1.1685 32.5673 3.08096 32.5673H26.9186C28.8326 32.5673 30.3393 30.7436 29.9335 28.7954Z" fill="#1E1E1E"/>
</svg>
