<svg width="247" height="278" viewBox="0 0 247 278" fill="none" xmlns="http://www.w3.org/2000/svg">
<g clip-path="url(#clip0_9_2120)">
<path d="M140.026 214.204C199.106 214.204 247 166.253 247 107.102C247 47.9511 199.106 0 140.026 0C80.9457 0 33.0518 47.9511 33.0518 107.102C33.0518 166.253 80.9457 214.204 140.026 214.204Z" fill="#F2F2F2"/>
<path d="M209.932 47.8958H13.9699C13.5497 47.8869 13.2163 47.5385 13.2253 47.1178C13.234 46.7097 13.5623 46.381 13.9699 46.3723H209.932C210.352 46.3813 210.685 46.7297 210.676 47.1504C210.667 47.5584 210.339 47.8871 209.932 47.8958Z" fill="#CACACA"/>
<path d="M143.148 73.5684H88.9768C84.9079 73.5684 81.6094 76.8708 81.6094 80.9445V80.9446C81.6094 85.0183 84.9079 88.3207 88.9768 88.3207H143.148C147.217 88.3207 150.516 85.0183 150.516 80.9445C150.516 76.8708 147.217 73.5684 143.148 73.5684Z" fill="white"/>
<path d="M53.9816 103.073H178.143C182.212 103.073 185.511 106.375 185.511 110.449C185.511 114.523 182.212 117.825 178.143 117.825H53.9816C49.9127 117.825 46.6143 114.523 46.6143 110.449C46.6143 106.375 49.9127 103.073 53.9816 103.073Z" fill="white"/>
<path d="M53.9816 132.578H178.143C182.212 132.578 185.511 135.88 185.511 139.954C185.511 144.028 182.212 147.33 178.143 147.33H53.9816C49.9127 147.33 46.6143 144.028 46.6143 139.954C46.6143 135.88 49.9127 132.578 53.9816 132.578Z" fill="white"/>
<path d="M38.5951 277.351L38.3029 277.323C28.3885 276.299 19.426 270.96 13.7964 262.725C12.2544 260.431 11.007 257.951 10.0839 255.345L9.99513 255.096L10.2578 255.075C13.3942 254.822 16.6162 254.289 18.0475 254.036L8.81794 250.905L8.76087 250.631C8.21368 248.057 9.28569 245.409 11.4683 243.942C13.6568 242.406 16.559 242.356 18.7981 243.818C19.803 244.461 20.8541 245.097 21.8704 245.713C25.3632 247.828 28.9749 250.015 31.6827 253.008C35.7888 257.637 37.5886 263.874 36.5807 269.982L38.5951 277.351Z" fill="#F2F2F2"/>
<path d="M72.1443 272.756L76.6928 272.755L78.8572 255.188L72.1431 255.189L72.1443 272.756Z" fill="#A0616A"/>
<path d="M71.9841 277.507L85.9726 277.506V277.329C85.9724 274.319 83.5348 271.878 80.5279 271.878L77.9724 269.937L73.205 271.878L71.9839 271.878L71.9841 277.507Z" fill="#2F2E41"/>
<path d="M35.6895 260.141L39.3278 262.874L51.589 250.123L46.2184 246.089L35.6895 260.141Z" fill="#A0616A"/>
<path d="M32.7134 263.846L43.9031 272.25L44.0093 272.108C45.8137 269.7 45.3267 266.283 42.9215 264.477L42.0407 261.389L37.0637 260.077L36.0869 259.343L32.7134 263.846Z" fill="#2F2E41"/>
<path d="M50.8105 190.318C50.8105 190.318 51.0617 197.176 51.3784 202.676C51.4303 203.578 49.3197 204.557 49.3743 205.539C49.4106 206.19 49.8073 206.823 49.8442 207.501C49.8831 208.218 49.3353 208.852 49.3743 209.593C49.4125 210.317 50.0373 211.147 50.075 211.888C50.4807 219.861 51.9511 229.406 50.4787 232.074C49.753 233.389 40.5034 251.608 40.5034 251.608C40.5034 251.608 45.657 259.347 47.1294 256.767C49.0742 253.36 64.0626 237.418 64.0626 234.374C64.0626 231.333 67.5301 208.546 67.5301 208.546L69.948 222.031L71.0567 224.703L70.7083 226.272L71.4248 228.389L71.4635 230.484L72.161 234.374C72.161 234.374 70.0628 264.684 71.2444 265.528C72.4297 266.375 78.1686 267.897 78.8459 266.375C79.5196 264.853 83.9044 234.743 83.9044 234.743C83.9044 234.743 84.6111 220.944 85.3768 208.118C85.421 207.374 85.9437 206.475 85.9842 205.741C86.0321 204.89 85.7008 203.784 85.7449 202.959C85.7928 202.012 86.2124 201.344 86.2529 200.438C86.5658 193.432 84.8093 184.9 84.2498 184.06C82.5601 181.524 81.0399 179.497 81.0399 179.497C81.0399 179.497 58.2824 172.011 52.2012 179.618L50.8105 190.318Z" fill="#2F2E41"/>
<path d="M73.5078 119.795L64.4862 117.989L60.2762 123.709C52.4205 131.443 52.3021 138.268 53.7045 149.209V164.564L52.6895 174.857C52.6895 174.857 49.0964 182.382 52.8023 184.134C56.5083 185.886 80.8508 185.737 83.175 185.037C85.4991 184.338 83.4846 183.479 82.8743 180.22C81.7278 174.098 82.4947 177.051 82.5736 175.102C83.7047 147.14 81.07 135.66 80.8024 132.643L76.2143 124.312L73.5078 119.795Z" fill="#3F3D56"/>
<path d="M121.057 142.34C120.117 144.124 117.91 144.807 116.129 143.865C115.939 143.765 115.758 143.648 115.589 143.516L96.106 155.901L96.1621 149.158L115.088 138.162C116.436 136.649 118.755 136.516 120.266 137.866C121.531 138.995 121.858 140.845 121.057 142.34Z" fill="#A0616A"/>
<path d="M66.3848 127.605L64.1667 127.37C62.1172 127.157 60.1064 128.036 58.8688 129.685C58.3948 130.31 58.0543 131.027 57.8686 131.79L57.8672 131.796C57.3109 134.092 58.1835 136.498 60.0817 137.902L67.7427 143.557C73.119 150.83 83.223 155.655 95.0751 159.576L113.498 148.12L106.982 140.219L94.3455 146.999L75.5625 132.442L75.5517 132.433L68.4029 127.822L66.3848 127.605Z" fill="#3F3D56"/>
<path d="M70.4599 115.36C76.2702 115.36 80.9803 110.644 80.9803 104.827C80.9803 99.01 76.2702 94.2942 70.4599 94.2942C64.6496 94.2942 59.9395 99.01 59.9395 104.827C59.9395 110.644 64.6496 115.36 70.4599 115.36Z" fill="#A0616A"/>
<path d="M70.7027 115.362C70.6179 115.365 70.5328 115.367 70.4479 115.369C70.4116 115.464 70.3724 115.557 70.3271 115.649L70.7027 115.362Z" fill="#2F2E41"/>
<path d="M73.5898 105.119C73.6063 105.223 73.6316 105.325 73.6653 105.425C73.6514 105.321 73.6261 105.218 73.5898 105.119Z" fill="#2F2E41"/>
<path d="M81.1146 94.7448C80.6815 96.091 80.295 94.3834 78.8705 94.6905C77.1569 95.06 75.1628 94.9331 73.7594 93.8814C71.6685 92.3454 68.9588 91.932 66.5057 92.7746C64.1044 93.6251 60.0816 94.2248 59.4559 96.6968C59.2384 97.556 59.152 98.4885 58.6249 99.2007C58.164 99.8233 57.4365 100.178 56.8282 100.657C54.7741 102.276 56.344 106.873 57.3162 109.302C58.2884 111.731 60.5185 113.5 62.9704 114.407C65.3427 115.284 67.9174 115.438 70.4481 115.369C70.8883 114.226 70.6982 112.906 70.335 111.721C69.9418 110.439 69.3596 109.201 69.1953 107.869C69.0311 106.538 69.3918 105.025 70.507 104.281C71.5321 103.597 73.2002 104.014 73.5901 105.119C73.3626 103.737 74.7613 102.399 76.2035 102.164C77.7519 101.911 79.3002 102.471 80.8441 102.75C82.3881 103.028 81.8401 96.5205 81.1146 94.7448Z" fill="#2F2E41"/>
<path d="M139.952 122.251C140.933 110.387 132.122 99.9728 120.272 98.9909C108.422 98.009 98.0207 106.831 97.0399 118.695C96.0592 130.559 104.87 140.973 116.72 141.955C128.57 142.937 138.972 134.115 139.952 122.251Z" fill="#6C63FF"/>
<path d="M124.152 111.492L118.496 117.154L112.841 111.492C111.925 110.575 110.441 110.575 109.525 111.492C108.61 112.408 108.61 113.894 109.525 114.811L115.181 120.473L109.525 126.135C108.611 127.053 108.612 128.539 109.529 129.454C110.444 130.369 111.926 130.369 112.841 129.454L118.496 123.792L124.152 129.454C125.068 130.37 126.552 130.369 127.467 129.451C128.38 128.535 128.38 127.051 127.467 126.135L121.811 120.473L127.467 114.811C128.382 113.894 128.382 112.408 127.467 111.492C126.551 110.575 125.067 110.575 124.152 111.492Z" fill="white"/>
<path d="M110.012 102.356C110.647 104.27 109.612 106.337 107.7 106.972C107.496 107.04 107.287 107.089 107.074 107.12L102.513 129.77L97.6914 125.061L102.869 103.775C102.711 101.753 104.221 99.9869 106.24 99.8293C107.929 99.6975 109.489 100.742 110.012 102.356Z" fill="#A0616A"/>
<path d="M61.5418 131.653L59.8366 133.092C58.2643 134.426 57.5055 136.487 57.8375 138.523C57.9602 139.298 58.2409 140.04 58.6621 140.703L58.6656 140.708C59.9353 142.699 62.2737 143.735 64.5996 143.335L73.9791 141.715C82.9433 142.867 93.4162 138.907 104.447 133.059L108.945 111.818L98.7388 111.056L94.8776 124.879L71.382 128.371L71.3682 128.373L63.0954 130.345L61.5418 131.653Z" fill="#3F3D56"/>
<path d="M114.949 277.87L0.499845 278C0.222896 277.999 -0.000894378 277.774 2.68752e-06 277.496C0.00089133 277.22 0.224156 276.997 0.499845 276.996L114.949 276.866C115.226 276.867 115.45 277.093 115.449 277.37C115.448 277.646 115.225 277.869 114.949 277.87Z" fill="#CACACA"/>
<path d="M23.9122 38.2461C25.8792 38.2461 27.4737 36.6141 27.4737 34.6009C27.4737 32.5876 25.8792 30.9556 23.9122 30.9556C21.9452 30.9556 20.3506 32.5876 20.3506 34.6009C20.3506 36.6141 21.9452 38.2461 23.9122 38.2461Z" fill="#3F3D56"/>
<path d="M36.2159 38.2461C38.1829 38.2461 39.7774 36.6141 39.7774 34.6009C39.7774 32.5876 38.1829 30.9556 36.2159 30.9556C34.2489 30.9556 32.6543 32.5876 32.6543 34.6009C32.6543 36.6141 34.2489 38.2461 36.2159 38.2461Z" fill="#3F3D56"/>
<path d="M48.5196 38.2461C50.4866 38.2461 52.0811 36.6141 52.0811 34.6009C52.0811 32.5876 50.4866 30.9556 48.5196 30.9556C46.5526 30.9556 44.958 32.5876 44.958 34.6009C44.958 36.6141 46.5526 38.2461 48.5196 38.2461Z" fill="#3F3D56"/>
<path d="M62.5485 37.482C62.4391 37.482 62.3299 37.4396 62.2474 37.3552L59.8443 34.8956C59.6841 34.7317 59.6841 34.4698 59.8443 34.3059L62.2474 31.8466C62.4105 31.6802 62.6774 31.6776 62.843 31.84C63.0093 32.0029 63.0122 32.2699 62.8495 32.4363L60.7345 34.6008L62.8495 36.7655C63.0122 36.9318 63.0093 37.1989 62.843 37.3617C62.7611 37.442 62.6548 37.482 62.5485 37.482Z" fill="#3F3D56"/>
<path d="M66.5867 37.482C66.4804 37.482 66.3741 37.4421 66.2922 37.3618C66.1259 37.1989 66.123 36.9321 66.2857 36.7656L68.4005 34.6008L66.2857 32.4363C66.123 32.27 66.1259 32.0029 66.2922 31.8401C66.4582 31.677 66.7251 31.6801 66.8878 31.8467L69.2907 34.306C69.4509 34.4699 69.4509 34.7318 69.2907 34.8957L66.8878 37.3552C66.8053 37.4396 66.6961 37.482 66.5867 37.482Z" fill="#3F3D56"/>
<path d="M192.307 31.3777H187.838C187.329 31.3777 186.916 31.7909 186.916 32.3011V36.7792C186.916 37.2894 187.329 37.7026 187.838 37.7026H192.307C192.816 37.7026 193.233 37.2894 193.233 36.7792V32.3011C193.233 31.7909 192.816 31.3777 192.307 31.3777Z" fill="#3F3D56"/>
<path d="M181.357 31.3777H176.888C176.379 31.3777 175.966 31.7909 175.966 32.3011V36.7792C175.966 37.2894 176.379 37.7026 176.888 37.7026H181.357C181.866 37.7026 182.283 37.2894 182.283 36.7792V32.3011C182.283 31.7909 181.866 31.3777 181.357 31.3777Z" fill="#3F3D56"/>
<path d="M202.625 31.5884H198.157C197.647 31.5884 197.234 32.0016 197.234 32.5118V36.9899C197.234 37.5001 197.647 37.9133 198.157 37.9133H202.625C203.135 37.9133 203.552 37.5001 203.552 36.9899V32.5118C203.552 32.0016 203.135 31.5884 202.625 31.5884Z" fill="#3F3D56"/>
<path d="M135.273 33.292H99.5542C98.9309 33.292 98.4297 33.798 98.4297 34.4178C98.4297 35.0377 98.9309 35.5437 99.5542 35.5437H135.273C135.892 35.5437 136.397 35.0377 136.397 34.4178C136.397 33.798 135.892 33.292 135.273 33.292Z" fill="#3F3D56"/>
</g>
<defs>
<clipPath id="clip0_9_2120">
<rect width="247" height="278" fill="white"/>
</clipPath>
</defs>
</svg>
