<svg width="286" height="284" viewBox="0 0 286 284" fill="none" xmlns="http://www.w3.org/2000/svg">
<g clip-path="url(#clip0_9_2154)">
<path d="M286 283.35C286 283.711 285.711 284 285.351 284H0.648674C0.288922 284 0 283.711 0 283.35C0 282.99 0.288922 282.701 0.648674 282.701H285.351C285.711 282.701 286 282.99 286 283.35Z" fill="#3F3D56"/>
<path d="M197.623 251.718L200.894 265.367L191.082 268.097L188.901 253.356L197.623 251.718Z" fill="#FFB6B6"/>
<path d="M213.431 207.496L203.074 216.231L196.533 226.604L205.8 232.61L221.608 214.593L213.431 207.496Z" fill="#FFB6B6"/>
<path d="M210.161 117.413L218.882 146.895C218.882 146.895 257.585 180.744 253.769 187.841C249.953 194.939 224.333 214.593 224.333 214.593C224.333 214.593 226.235 220.878 220.651 218.282C215.066 215.685 209.07 208.588 209.07 208.588C209.07 208.588 209.07 203.128 211.796 204.22C214.521 205.312 227.059 190.571 227.059 190.571L199.804 165.457V249.433C199.804 249.433 206.345 255.162 199.804 255.624C193.262 256.086 187.266 257.178 187.266 257.178C187.266 257.178 179.635 254.448 182.36 251.718L174.184 206.95L168.188 152.354L172.548 123.964L210.161 117.413Z" fill="#2F2E41"/>
<path d="M192.717 263.729C192.717 263.729 193.262 261.545 195.443 261.545H202.102C202.102 261.545 204.165 270.827 203.619 270.827C203.074 270.827 212.341 282.838 202.529 283.384C192.717 283.93 189.992 282.838 189.992 282.838L188.902 278.528C188.902 278.528 187.266 275.74 187.811 273.556C188.357 271.373 192.717 263.729 192.717 263.729Z" fill="#2F2E41"/>
<path d="M206.345 228.242C206.345 228.242 212.606 228.143 211.11 229.831C209.615 231.518 206.89 234.248 206.89 234.248C206.89 234.248 200.406 247.351 197.379 244.894C194.352 242.437 189.446 215.139 191.082 211.863C192.717 208.588 194.898 208.588 194.898 208.588L204.954 214.645C204.954 214.645 198.713 229.88 206.345 228.242Z" fill="#2F2E41"/>
<path d="M191.082 71.0065L193.262 57.3576L178.545 51.3521L176.364 72.0984L191.082 71.0065Z" fill="#FFB6B6"/>
<path opacity="0.1" d="M191.082 71.0065L193.262 57.3576L178.545 51.3521L176.364 72.0984L191.082 71.0065Z" fill="black"/>
<path d="M175.546 69.0957L192.99 64.728L211.523 70.7336C211.523 70.7336 219.7 93.6637 216.974 101.853C214.249 110.042 214.249 126.039 214.249 126.039C214.249 126.039 213.976 119.051 198.168 123.964C182.36 128.878 170.913 128.332 170.913 128.332L170.368 108.678L163.52 91.2196C160.593 83.7576 163.748 75.2855 170.839 71.5654L175.546 69.0957Z" fill="#E6E6E6"/>
<path d="M255.62 133.411C258.081 136.364 258.555 140.03 256.678 141.599C254.801 143.167 251.285 142.044 248.823 139.09C247.823 137.923 247.117 136.533 246.764 135.037L236.493 122.391L241.496 118.336L252.006 130.656C253.413 131.272 254.652 132.217 255.62 133.411Z" fill="#FFB6B6"/>
<path d="M210.732 70.908L207.157 85.0899L224.653 113.14L242.514 131.119L248.303 126.309L230.29 103.861L216.636 74.9378L210.732 70.908Z" fill="#E6E6E6"/>
<path d="M252.382 57.2192C264.842 56.297 273.998 42.7516 272.833 26.9646C271.668 11.1777 260.624 -0.872548 248.164 0.0496663C235.704 0.97188 226.548 14.5173 227.713 30.3043C228.877 46.0912 239.922 58.1415 252.382 57.2192Z" fill="#174276"/>
<path d="M251.908 57.2195H250.818V166.104H251.908V57.2195Z" fill="#2F2E41"/>
<path d="M252.18 54.9199L252.31 58.7782L254.051 62.3499L246.788 61.9789L249.841 58.9032L249.496 55.3975L252.18 54.9199Z" fill="#174276"/>
<path d="M187.363 61.7452C195.652 61.7452 202.371 55.0151 202.371 46.713C202.371 38.411 195.652 31.6809 187.363 31.6809C179.074 31.6809 172.354 38.411 172.354 46.713C172.354 55.0151 179.074 61.7452 187.363 61.7452Z" fill="#FFB6B6"/>
<path d="M186.165 26.5034C186.599 26.7573 187.181 26.3732 187.32 25.8892C187.459 25.4053 187.297 24.8914 187.136 24.4142L186.326 22.012C185.752 20.3083 185.143 18.545 183.899 17.2482C182.021 15.291 179.038 14.7931 176.352 15.1538C172.903 15.617 169.5 17.4876 167.896 20.5809C166.292 23.6742 166.975 27.9904 169.873 29.9203C165.743 34.6615 164.303 39.9454 164.53 46.2333C164.758 52.5213 171.599 58.3082 176.061 62.7379C177.057 62.1329 177.963 59.298 177.415 58.2681C176.867 57.2382 177.652 56.0451 176.974 55.0964C176.295 54.1478 175.727 55.6583 176.413 54.7151C176.846 54.1199 175.157 52.7506 175.8 52.3943C178.913 50.6713 179.948 46.7858 181.902 43.8105C184.26 40.2216 188.295 37.7912 192.566 37.388C194.918 37.1659 197.403 37.5682 199.331 38.936C201.259 40.3039 202.508 42.7482 202.061 45.072C203.219 43.8944 203.795 42.1686 203.578 40.5301C203.36 38.8916 202.354 37.3765 200.929 36.5427C201.795 33.6731 201.053 30.3722 199.042 28.1515C197.031 25.9309 188.874 26.3091 185.938 26.8936" fill="#2F2E41"/>
<path d="M185.709 37.4751C181.82 37.8955 179.013 41.269 176.642 44.3845C175.275 46.1802 173.844 48.1632 173.878 50.4207C173.913 52.7031 175.437 54.6607 176.165 56.8237C177.355 60.3593 176.195 64.5657 173.362 66.9882C176.161 67.5203 179.188 65.4179 179.671 62.6053C180.234 59.3311 177.756 56.1709 178.049 52.8616C178.308 49.946 180.602 47.7021 182.552 45.5222C184.502 43.3422 186.334 40.4494 185.436 37.6637" fill="#2F2E41"/>
<path d="M171.395 128.059H59.2844C46.5709 128.059 36.2646 138.381 36.2646 151.114V259.996C36.2646 272.729 46.5709 283.052 59.2843 283.052H171.395C184.109 283.052 194.415 272.729 194.415 259.996V151.114C194.415 138.381 184.109 128.059 171.395 128.059Z" fill="white"/>
<path d="M171.395 283.597H59.2841C46.2905 283.597 35.7192 273.01 35.7192 259.996V151.114C35.7192 138.1 46.2905 127.513 59.2841 127.513H171.395C184.389 127.513 194.96 138.1 194.96 151.114V259.996C194.96 273.01 184.389 283.597 171.395 283.597ZM59.2841 128.605C46.8915 128.605 36.8094 138.702 36.8094 151.114V259.996C36.8094 272.408 46.8915 282.506 59.2841 282.506H171.395C183.788 282.506 193.87 272.408 193.87 259.996V151.114C193.87 138.702 183.788 128.605 171.395 128.605H59.2841Z" fill="#3F3D56"/>
<path d="M159.566 138.77C161.002 138.77 162.166 137.604 162.166 136.166C162.166 134.728 161.002 133.562 159.566 133.562C158.13 133.562 156.966 134.728 156.966 136.166C156.966 137.604 158.13 138.77 159.566 138.77Z" fill="#3F3D56"/>
<path d="M166.715 138.77C168.151 138.77 169.314 137.604 169.314 136.166C169.314 134.728 168.151 133.562 166.715 133.562C165.279 133.562 164.115 134.728 164.115 136.166C164.115 137.604 165.279 138.77 166.715 138.77Z" fill="#3F3D56"/>
<path d="M173.864 138.77C175.3 138.77 176.463 137.604 176.463 136.166C176.463 134.728 175.3 133.562 173.864 133.562C172.428 133.562 171.264 134.728 171.264 136.166C171.264 137.604 172.428 138.77 173.864 138.77Z" fill="#3F3D56"/>
<path d="M55.6092 244.933C54.8015 244.933 54.1445 245.591 54.1445 246.4C54.1445 246.794 54.2966 247.159 54.5727 247.429C54.8511 247.714 55.2158 247.867 55.6092 247.867H172.86C173.668 247.867 174.325 247.209 174.325 246.4C174.325 246.006 174.173 245.641 173.897 245.371C173.618 245.086 173.254 244.933 172.86 244.933H55.6092Z" fill="#E6E6E6"/>
<path d="M118.304 244.444V248.356H55.6091C55.0721 248.356 54.5839 248.141 54.2324 247.779C53.871 247.427 53.6562 246.938 53.6562 246.4C53.6562 245.324 54.5351 244.444 55.6091 244.444L118.304 244.444Z" fill="#174276"/>
<path d="M170.419 237.11H150.891C148.737 237.11 146.985 235.355 146.985 233.198C146.985 231.04 148.737 229.286 150.891 229.286H170.419C172.573 229.286 174.325 231.04 174.325 233.198C174.325 235.355 172.573 237.11 170.419 237.11Z" fill="#E6E6E6"/>
<path d="M97.053 239.905L83.4014 193.964L82.3564 194.275L95.9601 240.055" fill="#2F2E41"/>
<path d="M97.5256 135.351C109.985 134.429 119.142 120.884 117.977 105.097C116.812 89.3098 105.767 77.2595 93.3074 78.1817C80.8477 79.104 71.6914 92.6494 72.8562 108.436C74.021 124.223 85.0659 136.274 97.5256 135.351Z" fill="#174276"/>
<path d="M97.0516 135.352H95.9614V244.236H97.0516V135.352Z" fill="#2F2E41"/>
<path d="M84.0152 192.633L85.2391 196.294L87.9246 199.22L80.8574 200.939L82.908 197.119L81.5791 193.857L84.0152 192.633Z" fill="#174276"/>
<path d="M97.3231 133.052L97.4539 136.91L99.1948 140.482L91.9316 140.111L94.9847 137.035L94.6396 133.53L97.3231 133.052Z" fill="#174276"/>
<path d="M84.3822 193.593C96.0512 189.122 100.933 173.512 95.2859 158.727C89.6389 143.942 75.6014 135.58 63.9324 140.051C52.2633 144.522 47.3816 160.132 53.0286 174.917C58.6757 189.702 72.7131 198.064 84.3822 193.593Z" fill="#174276"/>
<path d="M183.433 122.47C187.11 123.582 189.518 126.383 188.811 128.727C188.104 131.071 184.55 132.069 180.872 130.956C179.397 130.531 178.044 129.759 176.928 128.704L161.407 123.796L163.361 117.654L178.902 122.158C180.416 121.898 181.969 122.005 183.433 122.47Z" fill="#FFB6B6"/>
<path d="M156.468 82.1986L172.821 70.1875L172.276 93.1177L157.013 112.772L173.366 119.324L172.821 128.678C172.821 128.678 152.107 123.691 148.836 123.145C145.566 122.599 142.84 114.956 142.84 114.956L156.468 82.1986Z" fill="#E6E6E6"/>
</g>
<defs>
<clipPath id="clip0_9_2154">
<rect width="286" height="284" fill="white"/>
</clipPath>
</defs>
</svg>
