<svg width="150" height="150" viewBox="0 0 150 150" fill="none" xmlns="http://www.w3.org/2000/svg">
<g clip-path="url(#clip0_18_230)">
<path d="M76.3416 97.9168C89.7878 97.9168 100.688 87.0165 100.688 73.5703C100.688 60.1241 89.7878 49.2238 76.3416 49.2238C62.8954 49.2238 51.9951 60.1241 51.9951 73.5703C51.9951 87.0165 62.8954 97.9168 76.3416 97.9168Z" fill="#A0616A"/>
<path d="M56.1899 103.369L61.2651 90.3986L87.4869 86.4512L90.3043 115.162L63.8005 115.726L56.1899 103.369Z" fill="#A0616A"/>
<path d="M100.924 78.0624C100.608 79.3283 99.9695 82.3424 98.972 82.3572C98.1571 82.3691 97.3771 69.2929 98.1911 67.1301C99.1262 64.6453 96.6689 61.5021 94.8178 59.8886C91.4895 56.9874 84.1015 63.2169 76.5891 60.3949C76.3899 60.3202 76.4296 60.3286 74.0573 59.3822C66.7576 56.4697 66.3739 56.3856 65.9556 56.3441C62.417 55.994 58.0984 58.8897 56.3349 62.4203C54.5018 66.0904 56.0334 69.2383 54.3095 78.1173C54.1086 79.1522 53.7932 80.6273 53.2968 80.649C52.3894 80.6886 51.5034 75.8421 51.2714 74.5728C50.2992 69.2546 49.3619 64.1273 51.2714 58.3695C51.4797 57.7415 52.7634 55.4105 55.3222 50.7742C59.0086 44.0952 60.8627 40.7431 61.3985 40.1408C65.2411 35.8195 72.2356 31.8774 78.1081 33.5582C81.0763 34.4077 80.5441 35.7735 84.1844 37.1027C90.6716 39.4712 96.3098 36.5745 97.3495 38.6217C97.9004 39.7061 96.3592 40.6002 96.3368 42.6725C96.2985 46.2284 100.796 47.2559 103.426 50.7742C104.84 52.6656 107.26 52.6859 100.924 78.0624Z" fill="#2F2E41"/>
<path d="M131.086 124.796C130.105 125.899 129.087 126.979 128.033 128.033C113.867 142.198 95.0328 150 74.9999 150C57.685 150 41.2668 144.172 27.9839 133.444C27.9754 133.438 27.9698 133.432 27.9614 133.424C26.1992 132.003 24.4933 130.492 22.8467 128.896C22.8777 128.648 22.9115 128.402 22.9481 128.16C23.1794 126.525 23.436 124.965 23.7235 123.53C26.0779 111.767 57.0563 99.4175 57.8626 99.0959C57.8739 99.0931 57.8796 99.0903 57.8796 99.0903C57.8796 99.0903 61.8665 113.786 78.9501 113.597C90.5863 113.47 88.3307 99.0903 88.3307 99.0903C88.3307 99.0903 88.4717 99.1184 88.7367 99.1749C92.0976 99.8883 115.432 105.014 124.638 112.01C127.443 114.141 129.457 118.681 130.903 124.094C130.965 124.325 131.024 124.562 131.086 124.796Z" fill="#235A9F"/>
<path d="M128.033 21.9671C113.868 7.80194 95.0329 0 75 0C54.9671 0 36.1326 7.80194 21.9671 21.9671C7.80174 36.1326 0 54.9672 0 75C0 93.2849 6.49907 110.571 18.4088 124.221C19.5451 125.526 20.7322 126.798 21.9671 128.033C22.2575 128.323 22.5507 128.614 22.8468 128.896C24.4935 130.492 26.1993 132.003 27.9615 133.424C27.9699 133.432 27.9756 133.438 27.984 133.444C41.2669 144.172 57.6852 150 75 150C95.0329 150 113.868 142.198 128.033 128.033C129.087 126.979 130.105 125.899 131.087 124.796C143.315 111.059 150 93.5443 150 75C150 54.9672 142.198 36.1326 128.033 21.9671ZM130.903 124.094C128.684 126.618 126.299 128.992 123.761 131.194C118.948 135.381 113.591 138.956 107.814 141.804C105.787 142.805 103.709 143.715 101.583 144.53C93.3242 147.699 84.3609 149.436 75 149.436C65.9662 149.436 57.3045 147.818 49.2886 144.857C45.9981 143.645 42.8177 142.204 39.7641 140.555C39.3158 140.312 38.8703 140.067 38.4276 139.816C36.0987 138.496 33.8459 137.056 31.6833 135.499C28.5846 133.277 25.6635 130.822 22.9483 128.16C21.4258 126.668 19.9709 125.115 18.5809 123.499C7.35623 110.462 0.56391 93.5104 0.56391 75C0.56391 33.956 33.9558 0.56391 75 0.56391C116.044 0.56391 149.436 33.956 149.436 75C149.436 93.7952 142.435 110.983 130.903 124.094Z" fill="#3F3D56"/>
</g>
<defs>
<clipPath id="clip0_18_230">
<rect width="150" height="150" fill="white"/>
</clipPath>
</defs>
</svg>
